<svg width="16" height="4" viewBox="0 0 16 4" fill="none" xmlns="http://www.w3.org/2000/svg">
<path d="M0.0999999 0C0.0447714 0 0 0.0447715 0 0.1V3.9C0 3.95523 0.0447715 4 0.1 4H3.9C3.95523 4 4 3.95523 4 3.9V0.0999999C4 0.0447714 3.95523 0 3.9 0H0.0999999Z" fill="#FF5921"/>
<path d="M6.1 0C6.04477 0 6 0.0447715 6 0.1V3.9C6 3.95523 6.04477 4 6.1 4H9.9C9.95523 4 10 3.95523 10 3.9V0.0999999C10 0.0447714 9.95523 0 9.9 0H6.1Z" fill="#FF5921"/>
<path d="M12.1 0C12.0448 0 12 0.0447715 12 0.1V3.9C12 3.95523 12.0448 4 12.1 4H15.9C15.9552 4 16 3.95523 16 3.9V0.0999999C16 0.0447714 15.9552 0 15.9 0H12.1Z" fill="#FF5921"/>
</svg>
